<?xml version="1.0" encoding="UTF-8"?>
<svg xmlns="http://www.w3.org/2000/svg" id="Layer_1" data-name="Layer 1" width="145.36mm" height="63.43mm" viewBox="0 0 412.05 179.8">
  <title>lawfirm-logo-white</title>
  <path d="M-531.9,178.31c0-2.5,0-4.7-.1-6.6s-.1-3.5-.3-4.9-.3-2.5-.4-3.4a11.38,11.38,0,0,0-.5-2.3v-.2h5.9a31.08,31.08,0,0,0,4.3-.3c2.3-.2,4.7-.3,7-.3a26.42,26.42,0,0,1,7.4,1,16.06,16.06,0,0,1,5.8,3,12.83,12.83,0,0,1,3.9,5,14.35,14.35,0,0,1,1.4,6.5,20.32,20.32,0,0,1-.8,5.5,11.77,11.77,0,0,1-2.4,4.2,13.55,13.55,0,0,1-3.7,3,21.06,21.06,0,0,1-4.7,1.9,27.15,27.15,0,0,1,6.9,1.9,17.2,17.2,0,0,1,5.3,3.4,15.24,15.24,0,0,1,3.5,4.8,15.67,15.67,0,0,1,1.2,6c0,6.2-2.1,10.9-6.2,14s-10.3,4.7-18.4,4.7c-.9,0-1.9,0-3.1-.1l-3.6-.2-3.6-.2c-1.2-.1-2.2-.1-3.1-.1h-3v-.2c.2-.6.3-1.4.5-2.3a24.52,24.52,0,0,0,.4-3.4c.1-1.4.2-3,.3-4.9s.1-4.1.1-6.6Zm8.1,11.5a17.73,17.73,0,0,0,2.2.1h2.1a17.13,17.13,0,0,0,5.5-.9,10.25,10.25,0,0,0,4.2-2.6,12.06,12.06,0,0,0,2.7-4.3,17.58,17.58,0,0,0,1-6,18.13,18.13,0,0,0-.7-5.2,10.27,10.27,0,0,0-2.1-4,8.38,8.38,0,0,0-3.4-2.5,12.67,12.67,0,0,0-4.7-.9,27.15,27.15,0,0,0-2.9.1q-1.35.15-2.1.3a8.47,8.47,0,0,0-1.7.4Zm8.2,3.3c-1.7,0-3.4.1-5.1.2a15.27,15.27,0,0,0-3.1.5v13.4c0,3.5.1,6.3.2,8.5s.3,4.1.5,5.5c1.1.1,2.3.3,3.4.4a24.52,24.52,0,0,0,2.7.2c5.5,0,9.6-1.2,12.1-3.7s3.8-6.3,3.8-11.4a17.13,17.13,0,0,0-.9-5.5,12.06,12.06,0,0,0-2.7-4.3,11.77,11.77,0,0,0-4.5-2.8,20.35,20.35,0,0,0-6.4-1Z" transform="translate(661.85 -101.9)" style="fill:#fff"></path>
  <path d="M-471.3,160.91l10-.1c3,0,5.6-.1,7.8-.2a21.83,21.83,0,0,0,4.4-.4l-2.2,5.9c-1.1-.3-2.3-.5-3.4-.7a35.34,35.34,0,0,0-4.1-.5c-1.6-.1-3.5-.3-5.6-.3a23.55,23.55,0,0,0-2.5.1c-1,.1-2,.1-2.9.2l-3.2.2v24.2c3,0,5.8-.1,8.2-.3s4.5-.3,6.3-.5c2-.2,3.8-.4,5.3-.6l-1.4,6.4c-2-.3-4.1-.5-6.3-.8q-2.7-.3-6-.6c-2.2-.2-4.2-.2-6.2-.2v27.8a77.19,77.19,0,0,0,9.6-.5c2.9-.3,5.5-.6,7.7-1s4.7-.9,7-1.5l-1.3,7.2-1.6-.1-2.4-.1a27.15,27.15,0,0,1-2.8-.1h-25.5v-.3a18.92,18.92,0,0,0,.5-2.3,24.52,24.52,0,0,0,.4-3.4c.1-1.4.2-3,.3-4.9s.1-4.1.1-6.6v-28.6c0-2.5,0-4.7-.1-6.6s-.1-3.5-.3-4.9-.3-2.5-.4-3.4a18.92,18.92,0,0,0-.5-2.3v-.2Q-476.7,161.06-471.3,160.91Z" transform="translate(661.85 -101.9)" style="fill:#fff"></path>
  <path d="M-414.1,196.71l-15.7,19.9a18.39,18.39,0,0,0-1.7,2.2c-.5.8-1.1,1.5-1.5,2.2a12.81,12.81,0,0,0-1.1,2,4.19,4.19,0,0,0-.4,1.5h-8.6v-.2c.6-.6,1.6-1.4,2.8-2.6a37.76,37.76,0,0,0,3.8-4.3l19.5-24.5-20-26.3a27.44,27.44,0,0,0-3.2-3.6,15.45,15.45,0,0,0-2.4-1.9v-.2h13.9a6.75,6.75,0,0,0,.2,1.4,6.64,6.64,0,0,0,.6,2,19.23,19.23,0,0,0,1.2,2.5,31.27,31.27,0,0,0,2,3l12.8,16.8,14.1-17.7c.6-.7,1.1-1.4,1.6-2.1s1-1.5,1.4-2.2a12.44,12.44,0,0,0,1-2,4.19,4.19,0,0,0,.4-1.5h8.6v.2c-.3.2-.6.5-1,.8a6.79,6.79,0,0,0-1.2,1.2,12.94,12.94,0,0,0-1.5,1.7c-.5.7-1.2,1.4-1.9,2.3l-18.5,23.3,20.7,27a42.85,42.85,0,0,0,4,4.5,20.41,20.41,0,0,0,2.7,2.3v.2h-13.8a13,13,0,0,0-.8-3.4,20.29,20.29,0,0,0-3.2-5.5Z" transform="translate(661.85 -101.9)" style="fill:#fff"></path>
  <path d="M-323,170.71l-.4.2a26.19,26.19,0,0,0-8.3-5.1,29.79,29.79,0,0,0-10.7-1.9,29.21,29.21,0,0,0-10.2,1.8,21.87,21.87,0,0,0-8,5.1,22.07,22.07,0,0,0-5.2,8.2,31.83,31.83,0,0,0-1.9,11,44.63,44.63,0,0,0,1.8,12.6,30.11,30.11,0,0,0,5.3,10.2,25.44,25.44,0,0,0,8.8,6.8,28.83,28.83,0,0,0,12.3,2.5,29.37,29.37,0,0,0,5.1-.5,28.07,28.07,0,0,0,4.9-1.6,27.57,27.57,0,0,0,4.4-2.5,19.94,19.94,0,0,0,3.7-3.4l.5.3-3.5,9a37.64,37.64,0,0,1-7.3,2,44.32,44.32,0,0,1-8.1.7,42.49,42.49,0,0,1-15-2.4,33.35,33.35,0,0,1-11.7-6.7,28.86,28.86,0,0,1-7.6-10.4,31.66,31.66,0,0,1-2.7-13.5,33.18,33.18,0,0,1,1.1-8.3,32.88,32.88,0,0,1,3.2-7.8,33.58,33.58,0,0,1,5.1-6.8,30,30,0,0,1,7-5.3,37.88,37.88,0,0,1,8.6-3.5,39.09,39.09,0,0,1,10.2-1.3,45.34,45.34,0,0,1,15.9,2.6Z" transform="translate(661.85 -101.9)" style="fill:#fff"></path>
  <path d="M-284,159.91a37.68,37.68,0,0,1,13.7,2.4,31.37,31.37,0,0,1,10.8,6.8,30,30,0,0,1,7.1,10.5,34.88,34.88,0,0,1,2.6,13.5,33.09,33.09,0,0,1-1,8.3,29.8,29.8,0,0,1-2.9,7.7,34.6,34.6,0,0,1-4.6,6.7,31.59,31.59,0,0,1-6.2,5.3,30.51,30.51,0,0,1-7.8,3.5,32,32,0,0,1-9.2,1.3,39.92,39.92,0,0,1-13.7-2.4,32.67,32.67,0,0,1-10.8-6.7,29.66,29.66,0,0,1-7.1-10.4,34.88,34.88,0,0,1-2.6-13.5,33.09,33.09,0,0,1,1-8.3,31.94,31.94,0,0,1,2.9-7.8,33.9,33.9,0,0,1,4.6-6.8,24.68,24.68,0,0,1,6.3-5.3,30.51,30.51,0,0,1,7.8-3.5A30.81,30.81,0,0,1-284,159.91Zm2.5,62a23,23,0,0,0,9-1.8,19.78,19.78,0,0,0,7-5.1,23.75,23.75,0,0,0,4.6-8.2,34.49,34.49,0,0,0,1.6-11,48.37,48.37,0,0,0-1.6-12.6,29.16,29.16,0,0,0-4.7-10.1,21.64,21.64,0,0,0-7.7-6.7,22.47,22.47,0,0,0-10.8-2.4,23,23,0,0,0-9,1.8,18.64,18.64,0,0,0-7,5.1,23.75,23.75,0,0,0-4.6,8.2,34.49,34.49,0,0,0-1.6,11,48.37,48.37,0,0,0,1.6,12.6,32.36,32.36,0,0,0,4.6,10.2,23.29,23.29,0,0,0,7.8,6.8A25.18,25.18,0,0,0-281.5,221.91Z" transform="translate(661.85 -101.9)" style="fill:#fff"></path>
  <path d="M-627,154a15.84,15.84,0,0,0-11.3-4.1h-23.5v28.8h22.7c4.9,0,8.9-1.4,11.9-4.1a13.85,13.85,0,0,0,4.5-10.3A13.88,13.88,0,0,0-627,154Z" transform="translate(661.85 -101.9)" style="fill:#cd8c2f;fill-rule:evenodd"></path>
  <path d="M-623.75,225a14.44,14.44,0,0,0,4.6-11.2,15,15,0,0,0-4.7-11.3c-3.1-2.9-7.6-4.4-13.5-4.4h-24.5v31.1h25.2C-631,229.3-626.85,227.8-623.75,225Z" transform="translate(661.85 -101.9)" style="fill:#cd8c2f;fill-rule:evenodd"></path>
  <path d="M-585.75,127.8c-14.7-14.4-34.1-24.2-55.9-25.9v30.5h4.2a41.49,41.49,0,0,1,18.6,4.2,34.42,34.42,0,0,1,13.4,11.4,27.84,27.84,0,0,1,4.9,15.8,27.16,27.16,0,0,1-4.5,15.7,29.56,29.56,0,0,1-11.7,10.2v1.4a31.12,31.12,0,0,1,15,10.7,27.92,27.92,0,0,1,5.5,17.6,29.9,29.9,0,0,1-5.3,17.6,34.28,34.28,0,0,1-14.3,11.8,47.34,47.34,0,0,1-19.9,4.1h-5.9v28.8a89.57,89.57,0,0,0,55.9-26.2,90,90,0,0,0,26.5-63.8A90,90,0,0,0-585.75,127.8Z" transform="translate(661.85 -101.9)" style="fill:#cd8c2f;fill-rule:evenodd"></path>
</svg>
