<?xml version="1.0" encoding="UTF-8"?>
<svg xmlns="http://www.w3.org/2000/svg" id="Layer_1" data-name="Layer 1" width="36.18mm" height="63.39mm" viewBox="0 0 102.57 179.68">
  <title>lawfirm-favicon</title>
  <path d="M-225.23,113.46q-4.29-4.11-11.34-4.12h-23.37v28.75h22.69q7.38,0,11.86-4.12a13.5,13.5,0,0,0,4.45-10.34A13.59,13.59,0,0,0-225.23,113.46Z" transform="translate(259.94 -61.36)" style="fill:#cd8c2f;fill-rule:evenodd"></path>
  <path d="M-221.86,184.41a14.57,14.57,0,0,0,4.62-11.18A14.71,14.71,0,0,0-221.95,162q-4.71-4.35-13.45-4.37h-24.54v31.1h25.22Q-226.48,188.69-221.86,184.41Z" transform="translate(259.94 -61.36)" style="fill:#cd8c2f;fill-rule:evenodd"></path>
  <path d="M-183.88,87.26C-198.6,72.81-218,63-239.77,61.36V91.9h4.2A41.55,41.55,0,0,1-217,96.1a34,34,0,0,1,13.39,11.43,27.76,27.76,0,0,1,4.87,15.8,27.52,27.52,0,0,1-4.45,15.72,29.24,29.24,0,0,1-11.69,10.17v1.35a31.59,31.59,0,0,1,15,10.68,28.23,28.23,0,0,1,5.55,17.57,30.17,30.17,0,0,1-5.29,17.56,34.34,34.34,0,0,1-14.29,11.77,47.16,47.16,0,0,1-19.92,4.12h-5.89V241a89.6,89.6,0,0,0,55.89-26.17,89.63,89.63,0,0,0,26.45-63.81A90.13,90.13,0,0,0-183.88,87.26Z" transform="translate(259.94 -61.36)" style="fill:#cd8c2f;fill-rule:evenodd"></path>
</svg>
